# xmcd
#
# Track frame offsets: 
#        150
#        19410
#        58897
#        80363
#        103711
#        126528
#        141398
#        160476
#        179417
#        198575
#        232472
#        252601
#        286932
#        310374
#
# Disc length: 4545 seconds
#
# Revision: 0
# Processed by: cddbd v1.5.2PL0 Copyright (c) Steve Scherf et al.
# Submitted via: ExactAudioCopy v0.99pb5
#
DISCID=e511bf0e
DTITLE=Gene Harris and All Star Big Band - Jazz Jam
DYEAR=1900
DGENRE=Blues
TTITLE0=Swingin' The Blues
TTITLE1=A Beautiful Friendship
TTITLE2=Buhaina Buhaina
TTITLE3=Blues for Jezebel
TTITLE4=Dejection Blues
TTITLE5=Don't Get Around Much Anym
TTITLE6=In The Wee Small Hours of
TTITLE7=It Never Entered My Mind
TTITLE8=Mistreated But Undefeated Blues
TTITLE9=The Best Things In Life
TTITLE10=Strollin'
TTITLE11=Night Mist Blues
TTITLE12=At Last
TTITLE13=Blue Bossa
EXTD=
EXTT0=
EXTT1=
EXTT2=
EXTT3=
EXTT4=
EXTT5=
EXTT6=
EXTT7=
EXTT8=
EXTT9=
EXTT10=
EXTT11=
EXTT12=
EXTT13=
PLAYORDER=
